<svg width="15" height="18" viewBox="0 0 15 18" fill="none" xmlns="http://www.w3.org/2000/svg">
<path fill-rule="evenodd" clip-rule="evenodd" d="M4.56667 0C4.25371 0 4 0.335786 4 0.75C4 1.16421 4.25371 1.5 4.56667 1.5H10.2333C10.5463 1.5 10.8 1.16421 10.8 0.75C10.8 0.335786 10.5463 0 10.2333 0H4.56667ZM0.592105 1.97852C0.265095 1.97852 0 2.3143 0 2.72852C0 3.14273 0.265095 3.47852 0.592105 3.47852H14.4079C14.7349 3.47852 15 3.14273 15 2.72852C15 2.3143 14.7349 1.97852 14.4079 1.97852H0.592105ZM4.59922 4.94531C4.93059 4.94531 5.19922 5.18516 5.19922 5.48103L5.19922 14.4096C5.19922 14.7055 4.93059 14.9453 4.59922 14.9453C4.26785 14.9453 3.99922 14.7055 3.99922 14.4096L3.99922 5.48103C3.99922 5.18516 4.26785 4.94531 4.59922 4.94531ZM7.96094 5.48103C7.96094 5.18516 7.69231 4.94531 7.36094 4.94531C7.02957 4.94531 6.76094 5.18516 6.76094 5.48103V14.4096C6.76094 14.7055 7.02957 14.9453 7.36094 14.9453C7.69231 14.9453 7.96094 14.7055 7.96094 14.4096L7.96094 5.48103ZM10.1266 4.94531C10.4579 4.94531 10.7266 5.18516 10.7266 5.48103V14.4096C10.7266 14.7055 10.4579 14.9453 10.1266 14.9453C9.79519 14.9453 9.52656 14.7055 9.52656 14.4096L9.52656 5.48103C9.52656 5.18516 9.79519 4.94531 10.1266 4.94531ZM2.18024 4.54801C2.1562 4.22219 1.87288 3.97757 1.54742 4.00163C1.22195 4.02569 0.977597 4.30932 1.00163 4.63514L1.94708 17.452C1.96987 17.761 2.22692 18 2.53638 18H12.4636C12.7731 18 13.0301 17.761 13.0529 17.452L13.9984 4.63514C14.0224 4.30932 13.778 4.02569 13.4526 4.00163C13.1271 3.97757 12.8438 4.22219 12.8198 4.54801L11.9147 16.8169H3.08526L2.18024 4.54801Z" fill="#818181"/>
</svg>
