<svg width="70" height="20" viewBox="0 0 70 20" fill="none" xmlns="http://www.w3.org/2000/svg">
<path d="M16.1729 4.88281C16.1729 5.50911 16.1432 6.19889 16.084 6.95215C16.0247 7.7054 15.9274 8.48405 15.792 9.28809C15.6566 10.0921 15.4788 10.9089 15.2588 11.7383C15.0472 12.5592 14.7806 13.3506 14.459 14.1123C14.1374 14.874 13.7607 15.5892 13.3291 16.2578C12.9059 16.918 12.415 17.4977 11.8564 17.9971C11.3063 18.488 10.6885 18.873 10.0029 19.1523C9.31738 19.4401 8.55566 19.584 7.71777 19.584C6.736 19.584 5.88118 19.4232 5.15332 19.1016C4.43392 18.7884 3.81608 18.3652 3.2998 17.832C2.78353 17.2904 2.36035 16.6641 2.03027 15.9531C1.7002 15.2337 1.44206 14.4762 1.25586 13.6807C1.06966 12.8766 0.938477 12.0599 0.862305 11.2305C0.794596 10.3926 0.760742 9.58854 0.760742 8.81836C0.760742 7.63346 0.819987 6.4528 0.938477 5.27637C1.05697 4.09147 1.22624 2.91081 1.44629 1.73438L7.3877 1.96289C7.15918 3.29167 6.96029 4.62891 6.79102 5.97461C6.63021 7.31185 6.5498 8.65755 6.5498 10.0117C6.5498 10.1556 6.55404 10.3714 6.5625 10.6592C6.57943 10.9385 6.60482 11.2559 6.63867 11.6113C6.67253 11.9583 6.71908 12.318 6.77832 12.6904C6.84603 13.0544 6.9349 13.3887 7.04492 13.6934C7.15495 13.998 7.28613 14.2477 7.43848 14.4424C7.59928 14.637 7.78548 14.7344 7.99707 14.7344C8.24251 14.7344 8.46257 14.6201 8.65723 14.3916C8.85189 14.1546 9.02116 13.8415 9.16504 13.4521C9.31738 13.0628 9.44857 12.6143 9.55859 12.1064C9.66862 11.5986 9.76172 11.0697 9.83789 10.5195C9.91406 9.9694 9.97331 9.41927 10.0156 8.86914C10.0664 8.31901 10.1045 7.80697 10.1299 7.33301C10.1637 6.85905 10.1849 6.4401 10.1934 6.07617C10.2018 5.71224 10.2061 5.44141 10.2061 5.26367C10.2061 4.60352 10.1934 3.94759 10.168 3.2959C10.151 2.63574 10.1214 1.97982 10.0791 1.32812H16.0205C16.1221 2.49609 16.1729 3.68099 16.1729 4.88281ZM30.6328 1.09961L30.5059 6.48242L26.7227 6.63477L26.2656 18.416L20.9082 18.6953L20.4258 6.91406L16.6426 7.11719L16.7949 1.125L30.6328 1.09961ZM46.2354 6.76172C46.2354 7.42188 46.1761 8.02279 46.0576 8.56445C45.9476 9.09766 45.7699 9.58854 45.5244 10.0371C45.279 10.4857 44.9616 10.9004 44.5723 11.2812C44.1829 11.6621 43.7132 12.026 43.1631 12.373L46.1846 17.7559L40.4717 18.873L38.5166 13.4648L36.9424 13.5156L36.7139 18.7969H31.2549C31.2972 16.8672 31.3353 14.946 31.3691 13.0332C31.4115 11.1204 31.458 9.19922 31.5088 7.26953C31.5257 6.29622 31.5426 5.33138 31.5596 4.375C31.5765 3.41862 31.6104 2.45378 31.6611 1.48047C32.2536 1.26042 32.8376 1.07845 33.4131 0.93457C33.9886 0.79069 34.5641 0.680664 35.1396 0.604492C35.7236 0.519857 36.3118 0.464844 36.9043 0.439453C37.5052 0.405599 38.1188 0.388672 38.7451 0.388672C39.71 0.388672 40.641 0.524089 41.5381 0.794922C42.4437 1.05729 43.2435 1.45508 43.9375 1.98828C44.6315 2.52148 45.1859 3.18587 45.6006 3.98145C46.0238 4.77702 46.2354 5.70378 46.2354 6.76172ZM40.5479 7.16797C40.5479 6.8125 40.4971 6.48665 40.3955 6.19043C40.3024 5.89421 40.1585 5.6403 39.9639 5.42871C39.7777 5.20866 39.5407 5.03939 39.2529 4.9209C38.9736 4.79395 38.6436 4.73047 38.2627 4.73047C38.0934 4.73047 37.9284 4.74316 37.7676 4.76855C37.6068 4.78548 37.4502 4.8151 37.2979 4.85742L37.0947 9.58008H37.3994C37.7633 9.58008 38.1315 9.53353 38.5039 9.44043C38.8848 9.34733 39.2233 9.20345 39.5195 9.00879C39.8242 8.81413 40.0697 8.56445 40.2559 8.25977C40.4505 7.95508 40.5479 7.59115 40.5479 7.16797ZM53.751 1.125L52.8623 18.416L47.5049 18.6953L46.9971 1.48047L53.751 1.125ZM69.582 7.29492C69.582 8.11589 69.4593 8.84375 69.2139 9.47852C68.9684 10.1133 68.6299 10.6719 68.1982 11.1543C67.7751 11.6283 67.2757 12.0303 66.7002 12.3604C66.1247 12.682 65.5068 12.9486 64.8467 13.1602C64.195 13.3633 63.5179 13.5156 62.8154 13.6172C62.113 13.7103 61.4232 13.7611 60.7461 13.7695V19.1777H54.8301C54.8301 18.2129 54.8301 17.2734 54.8301 16.3594C54.8385 15.4453 54.8428 14.5397 54.8428 13.6426C54.8512 12.737 54.8555 11.8271 54.8555 10.9131C54.8639 9.99902 54.8724 9.05534 54.8809 8.08203C54.8978 7.04948 54.902 6.01693 54.8936 4.98438C54.8851 3.95182 54.9062 2.91081 54.957 1.86133C56.0404 1.53971 57.1237 1.2985 58.207 1.1377C59.2904 0.976888 60.4076 0.896484 61.5586 0.896484C62.2103 0.896484 62.862 0.951497 63.5137 1.06152C64.1654 1.16309 64.7874 1.32812 65.3799 1.55664C65.9808 1.78516 66.5352 2.07292 67.043 2.41992C67.5592 2.75846 68.0036 3.16471 68.376 3.63867C68.7484 4.11263 69.0404 4.6543 69.252 5.26367C69.472 5.87305 69.582 6.55013 69.582 7.29492ZM63.9453 7.72656C63.9453 7.17643 63.776 6.74902 63.4375 6.44434C63.1074 6.13118 62.6758 5.97461 62.1426 5.97461C61.9648 5.97461 61.7786 5.99154 61.584 6.02539C61.3978 6.05078 61.2201 6.08464 61.0508 6.12695L60.8984 9.83398C61.0169 9.85091 61.1312 9.85938 61.2412 9.85938C61.3512 9.85938 61.4655 9.85938 61.584 9.85938C61.8887 9.85938 62.1807 9.80859 62.46 9.70703C62.7477 9.60547 63.0016 9.46159 63.2217 9.27539C63.4417 9.08073 63.6152 8.85645 63.7422 8.60254C63.8776 8.34017 63.9453 8.04818 63.9453 7.72656Z" fill="#0094FF"/>
</svg>
