<svg width="54" height="16" viewBox="0 0 54 16" fill="none" xmlns="http://www.w3.org/2000/svg">
<path d="M12.5176 4.14062C12.5176 4.6224 12.4948 5.15299 12.4492 5.73242C12.4036 6.31185 12.3288 6.91081 12.2246 7.5293C12.1204 8.14779 11.9837 8.77604 11.8145 9.41406C11.6517 10.0456 11.4466 10.6543 11.1992 11.2402C10.9518 11.8262 10.6621 12.3763 10.3301 12.8906C10.0046 13.3984 9.62695 13.8444 9.19727 14.2285C8.77409 14.6061 8.29883 14.9023 7.77148 15.1172C7.24414 15.3385 6.6582 15.4492 6.01367 15.4492C5.25846 15.4492 4.60091 15.3255 4.04102 15.0781C3.48763 14.8372 3.01237 14.5117 2.61523 14.1016C2.2181 13.6849 1.89258 13.2031 1.63867 12.6562C1.38477 12.1029 1.1862 11.5202 1.04297 10.9082C0.89974 10.2897 0.798828 9.66146 0.740234 9.02344C0.688151 8.37891 0.662109 7.76042 0.662109 7.16797C0.662109 6.25651 0.707682 5.34831 0.798828 4.44336C0.889974 3.5319 1.02018 2.6237 1.18945 1.71875L5.75977 1.89453C5.58398 2.91667 5.43099 3.94531 5.30078 4.98047C5.17708 6.00911 5.11523 7.04427 5.11523 8.08594C5.11523 8.19661 5.11849 8.36263 5.125 8.58398C5.13802 8.79883 5.15755 9.04297 5.18359 9.31641C5.20964 9.58333 5.24544 9.86003 5.29102 10.1465C5.3431 10.4264 5.41146 10.6836 5.49609 10.918C5.58073 11.1523 5.68164 11.3444 5.79883 11.4941C5.92253 11.6439 6.06576 11.7188 6.22852 11.7188C6.41732 11.7188 6.58659 11.6309 6.73633 11.4551C6.88607 11.2728 7.01628 11.0319 7.12695 10.7324C7.24414 10.4329 7.34505 10.0879 7.42969 9.69727C7.51432 9.30664 7.58594 8.89974 7.64453 8.47656C7.70312 8.05339 7.7487 7.63021 7.78125 7.20703C7.82031 6.78385 7.84961 6.38997 7.86914 6.02539C7.89518 5.66081 7.91146 5.33854 7.91797 5.05859C7.92448 4.77865 7.92773 4.57031 7.92773 4.43359C7.92773 3.92578 7.91797 3.42122 7.89844 2.91992C7.88542 2.41211 7.86263 1.90755 7.83008 1.40625H12.4004C12.4785 2.30469 12.5176 3.21615 12.5176 4.14062ZM23.6211 1.03516L23.5234 5.17578L20.6133 5.29297L19.8711 14.5508L15.75 14.7656L15.7695 5.50781L12.8594 5.66406L12.9766 1.05469L23.6211 1.03516ZM35.6035 5.58594C35.6035 6.09375 35.5579 6.55599 35.4668 6.97266C35.3822 7.38281 35.2454 7.76042 35.0566 8.10547C34.8678 8.45052 34.6237 8.76953 34.3242 9.0625C34.0247 9.35547 33.6634 9.63542 33.2402 9.90234L35.5645 14.043L31.1699 14.9023L29.666 10.7422L28.4551 10.7812L28.2793 14.8438H24.0801C24.1126 13.3594 24.1419 11.8815 24.168 10.4102C24.2005 8.9388 24.2363 7.46094 24.2754 5.97656C24.2884 5.22786 24.3014 4.48568 24.3145 3.75C24.3275 3.01432 24.3535 2.27214 24.3926 1.52344C24.8483 1.35417 25.2975 1.21419 25.7402 1.10352C26.1829 0.992839 26.6257 0.908203 27.0684 0.849609C27.5176 0.784505 27.9701 0.742188 28.4258 0.722656C28.888 0.696615 29.36 0.683594 29.8418 0.683594C30.584 0.683594 31.3001 0.78776 31.9902 0.996094C32.6868 1.19792 33.3021 1.50391 33.8359 1.91406C34.3698 2.32422 34.7962 2.83529 35.1152 3.44727C35.4408 4.05924 35.6035 4.77214 35.6035 5.58594ZM31.2285 5.89844C31.2285 5.625 31.1895 5.37435 31.1113 5.14648C31.0397 4.91862 30.929 4.72331 30.7793 4.56055C30.6361 4.39128 30.4538 4.26107 30.2324 4.16992C30.0176 4.07227 29.7637 4.02344 29.4707 4.02344C29.3405 4.02344 29.2135 4.0332 29.0898 4.05273C28.9661 4.06576 28.8457 4.08854 28.7285 4.12109L28.5723 7.75391H28.8066C29.0866 7.75391 29.3698 7.7181 29.6562 7.64648C29.9492 7.57487 30.2096 7.46419 30.4375 7.31445C30.6719 7.16471 30.8607 6.97266 31.0039 6.73828C31.1536 6.50391 31.2285 6.22396 31.2285 5.89844ZM41.5605 1.25L40.4863 14.5508L36.3652 14.7656V1.52344L41.5605 1.25ZM53.6211 5.60547C53.6211 6.23698 53.5267 6.79688 53.3379 7.28516C53.1491 7.77344 52.8887 8.19987 52.5566 8.56445C52.2311 8.92904 51.847 9.23828 51.4043 9.49219C50.9616 9.74609 50.4863 9.95443 49.9785 10.1172C49.4772 10.2734 48.9564 10.3906 48.416 10.4688C47.8757 10.5404 47.3451 10.5794 46.8242 10.5859V15.1367H42.2734C42.2734 13.6458 42.2767 12.1615 42.2832 10.6836C42.2897 9.20573 42.2995 7.71484 42.3125 6.21094C42.3255 5.41667 42.3288 4.6224 42.3223 3.82812C42.3158 3.03385 42.332 2.23307 42.3711 1.42578C43.2044 1.17839 44.0378 0.992839 44.8711 0.869141C45.7044 0.745443 46.5638 0.683594 47.4492 0.683594C47.9505 0.683594 48.4518 0.725911 48.9531 0.810547C49.4544 0.888672 49.9329 1.01562 50.3887 1.19141C50.8509 1.36719 51.2773 1.58854 51.668 1.85547C52.0651 2.11589 52.4069 2.42839 52.6934 2.79297C52.9798 3.15755 53.2044 3.57422 53.3672 4.04297C53.5365 4.50521 53.6211 5.02604 53.6211 5.60547ZM49.2852 5.9375C49.2852 5.51432 49.1549 5.18555 48.8945 4.95117C48.6406 4.71029 48.3086 4.58984 47.8984 4.58984C47.7617 4.58984 47.6185 4.60286 47.4688 4.62891C47.3255 4.64844 47.1888 4.67448 47.0586 4.70703L46.9414 7.55859C47.0326 7.57161 47.1204 7.57812 47.2051 7.57812C47.2897 7.57812 47.3776 7.57812 47.4688 7.57812C47.7031 7.57812 47.9277 7.53906 48.1426 7.46094C48.3639 7.38281 48.5592 7.27214 48.7285 7.12891C48.8978 6.97917 49.0312 6.80664 49.1289 6.61133C49.2331 6.40951 49.2852 6.1849 49.2852 5.9375Z" fill="white"/>
</svg>
