<svg width="18" height="18" viewBox="0 0 18 18" fill="none" xmlns="http://www.w3.org/2000/svg">
<path fill-rule="evenodd" clip-rule="evenodd" d="M7.16699 1.20841C3.8763 1.20841 1.20866 3.87605 1.20866 7.16675C1.20866 10.4574 3.8763 13.1251 7.16699 13.1251C10.4577 13.1251 13.1253 10.4574 13.1253 7.16675C13.1253 3.87605 10.4577 1.20841 7.16699 1.20841ZM0.291992 7.16675C0.291992 3.36979 3.37003 0.291748 7.16699 0.291748C10.964 0.291748 14.042 3.36979 14.042 7.16675C14.042 10.9637 10.964 14.0417 7.16699 14.0417C3.37003 14.0417 0.291992 10.9637 0.291992 7.16675Z" fill="#818181"/>
<path fill-rule="evenodd" clip-rule="evenodd" d="M12.074 11.426L17.574 16.926L16.9258 17.5742L11.4258 12.0742L12.074 11.426Z" fill="#818181"/>
</svg>
