<svg xmlns="http://www.w3.org/2000/svg" width="27" height="27" viewBox="0 0 27 27" fill="none">
  <path fill-rule="evenodd" clip-rule="evenodd" d="M11.7276 16.1604L11.1779 18.3948L16.4481 23.665C17.1001 24.317 18.181 24.0511 18.3937 23.1864L22.3823 6.9731C22.595 6.10839 21.7801 5.29341 20.9153 5.50614L4.70204 9.49471C3.83733 9.70744 3.57143 10.7883 4.22341 11.4403L9.49318 16.7101L11.7276 16.1604ZM9.97181 14.7645L14.1518 13.7362L13.1235 17.9162L16.9268 21.7194L20.4367 7.45173L6.16901 10.9617L9.97181 14.7645Z" fill="#7D7D7D"/>
  <path fill-rule="evenodd" clip-rule="evenodd" d="M11.7276 16.1604L11.1779 18.3948L16.4481 23.665C17.1001 24.317 18.181 24.0511 18.3937 23.1864L22.3823 6.9731C22.595 6.10839 21.7801 5.29341 20.9153 5.50614L4.70204 9.49471C3.83733 9.70744 3.57143 10.7883 4.22341 11.4403L9.49318 16.7101L11.7276 16.1604ZM9.97181 14.7645L14.1518 13.7362L13.1235 17.9162L16.9268 21.7194L20.4367 7.45173L6.16901 10.9617L9.97181 14.7645Z" fill="black" fill-opacity="0.2"/>
  <path fill-rule="evenodd" clip-rule="evenodd" d="M11.7276 16.1604L11.1779 18.3948L16.4481 23.665C17.1001 24.317 18.181 24.0511 18.3937 23.1864L22.3823 6.9731C22.595 6.10839 21.7801 5.29341 20.9153 5.50614L4.70204 9.49471C3.83733 9.70744 3.57143 10.7883 4.22341 11.4403L9.49318 16.7101L11.7276 16.1604ZM9.97181 14.7645L14.1518 13.7362L13.1235 17.9162L16.9268 21.7194L20.4367 7.45173L6.16901 10.9617L9.97181 14.7645Z" fill="black" fill-opacity="0.2"/>
  <path fill-rule="evenodd" clip-rule="evenodd" d="M11.7276 16.1604L11.1779 18.3948L16.4481 23.665C17.1001 24.317 18.181 24.0511 18.3937 23.1864L22.3823 6.9731C22.595 6.10839 21.7801 5.29341 20.9153 5.50614L4.70204 9.49471C3.83733 9.70744 3.57143 10.7883 4.22341 11.4403L9.49318 16.7101L11.7276 16.1604ZM9.97181 14.7645L14.1518 13.7362L13.1235 17.9162L16.9268 21.7194L20.4367 7.45173L6.16901 10.9617L9.97181 14.7645Z" fill="black" fill-opacity="0.2"/>
  <path fill-rule="evenodd" clip-rule="evenodd" d="M15.2191 11.4759L20.876 5.81909L22.0692 7.01233L16.4124 12.6692C16.0218 13.0597 15.4381 13.1092 15.1086 12.7797C14.7791 12.4502 14.8286 11.8665 15.2191 11.4759Z" fill="#7D7D7D"/>
  <path fill-rule="evenodd" clip-rule="evenodd" d="M15.2191 11.4759L20.876 5.81909L22.0692 7.01233L16.4124 12.6692C16.0218 13.0597 15.4381 13.1092 15.1086 12.7797C14.7791 12.4502 14.8286 11.8665 15.2191 11.4759Z" fill="black" fill-opacity="0.2"/>
  <path fill-rule="evenodd" clip-rule="evenodd" d="M15.2191 11.4759L20.876 5.81909L22.0692 7.01233L16.4124 12.6692C16.0218 13.0597 15.4381 13.1092 15.1086 12.7797C14.7791 12.4502 14.8286 11.8665 15.2191 11.4759Z" fill="black" fill-opacity="0.2"/>
  <path fill-rule="evenodd" clip-rule="evenodd" d="M15.2191 11.4759L20.876 5.81909L22.0692 7.01233L16.4124 12.6692C16.0218 13.0597 15.4381 13.1092 15.1086 12.7797C14.7791 12.4502 14.8286 11.8665 15.2191 11.4759Z" fill="black" fill-opacity="0.2"/>
</svg>